<?xml version="1.0" standalone="no"?><!DOCTYPE svg PUBLIC "-//W3C//DTD SVG 1.1//EN" "http://www.w3.org/Graphics/SVG/1.1/DTD/svg11.dtd"><svg t="1615388823836" class="icon" viewBox="0 0 1024 1024" version="1.1" xmlns="http://www.w3.org/2000/svg" p-id="14425" xmlns:xlink="http://www.w3.org/1999/xlink" width="48" height="48"><defs><style type="text/css"></style></defs><path d="M510.279822 63.620993c-171.411975 0-310.355467 135.772266-310.355467 303.290561 0 167.495782 207.317743 389.553227 310.355467 592.102363 107.445104-202.549136 310.355467-424.605557 310.355467-592.102363C820.635289 199.393259 681.691797 63.620993 510.279822 63.620993L510.279822 63.620993zM510.279822 539.898397c-96.41898 0-174.578084-76.725452-174.578084-171.451884 0-94.692662 78.159104-171.457 174.578084-171.457 96.413863 0 174.578084 76.765361 174.578084 171.457C684.856883 463.172945 606.692662 539.898397 510.279822 539.898397L510.279822 539.898397zM510.279822 292.252157c-42.863227 0-77.600379 34.122145-77.600379 76.19538 0 42.095747 34.737152 76.200496 77.600379 76.200496 42.840714 0 77.577866-34.104749 77.577866-76.200496C587.856665 326.374302 553.119513 292.252157 510.279822 292.252157L510.279822 292.252157zM510.279822 292.252157" p-id="14426" fill="#17abe3"></path></svg>