<?xml version="1.0" standalone="no"?><!DOCTYPE svg PUBLIC "-//W3C//DTD SVG 1.1//EN" "http://www.w3.org/Graphics/SVG/1.1/DTD/svg11.dtd"><svg t="1615388625491" class="icon" viewBox="0 0 1024 1024" version="1.1" xmlns="http://www.w3.org/2000/svg" p-id="10433" xmlns:xlink="http://www.w3.org/1999/xlink" width="48" height="48"><defs><style type="text/css"></style></defs><path d="M569.856 43.52a76.8 76.8 0 0 0-115.712 0C396.288 109.568 108.032 449.536 108.032 649.216c0 210.432 165.888 358.4 403.968 358.4s403.968-146.944 403.968-358.4c0-199.68-288.256-539.648-346.112-605.696z m-36.864 885.76v-256l181.248-153.6a25.6 25.6 0 1 0-32.768-39.424l-148.48 124.416V295.936a25.6 25.6 0 1 0-51.2 0v442.368L343.552 614.4a25.6 25.6 0 1 0-34.816 37.888l172.544 157.696v121.344c-166.4-10.752-296.96-109.568-296.96-279.552C184.832 468.48 512 94.208 512 94.208s327.168 374.272 327.168 555.008-135.68 272.384-306.176 280.064z" fill="#1F88D9" p-id="10434"></path></svg>