<?xml version="1.0" standalone="no"?><!DOCTYPE svg PUBLIC "-//W3C//DTD SVG 1.1//EN" "http://www.w3.org/Graphics/SVG/1.1/DTD/svg11.dtd"><svg t="1615388762242" class="icon" viewBox="0 0 1024 1024" version="1.1" xmlns="http://www.w3.org/2000/svg" p-id="12195" xmlns:xlink="http://www.w3.org/1999/xlink" width="48" height="48"><defs><style type="text/css"></style></defs><path d="M512 96a352 352 0 0 0-352 352c0 108.586667 78.122667 245.674667 233.258667 414.336l25.856 27.648 27.178666 28.16 28.544 28.8 25.173334 24.746667a17.066667 17.066667 0 0 0 23.936 0l25.216-24.746667 28.586666-28.757333 27.136-28.202667 25.856-27.648c155.136-168.661333 233.258667-305.749333 233.258667-414.336A352 352 0 0 0 512 96z m0 64a288 288 0 0 1 288 288l-0.170667 7.509333c-3.968 90.624-79.232 216.618667-226.858666 374.954667l-26.794667 28.288-13.952 14.421333-14.378667 14.506667a8.277333 8.277333 0 0 1-11.733333 0 2475.946667 2475.946667 0 0 1-67.84-70.997333l-24.533333-27.221334C286.933333 645.973333 224 531.328 224 448A288 288 0 0 1 512 160z" fill="#1296db" fill-opacity=".87" p-id="12196" data-spm-anchor-id="a313x.7781069.0.i29" class=""></path><path d="M512 309.333333a160 160 0 1 0 0 320 160 160 0 0 0 0-320z m0 64a96 96 0 1 1 0 192 96 96 0 0 1 0-192z" fill="#d4237a" p-id="12197" data-spm-anchor-id="a313x.7781069.0.i30" class="selected"></path></svg>