<?xml version="1.0" standalone="no"?><!DOCTYPE svg PUBLIC "-//W3C//DTD SVG 1.1//EN" "http://www.w3.org/Graphics/SVG/1.1/DTD/svg11.dtd"><svg t="1615387861825" class="icon" viewBox="0 0 1024 1024" version="1.1" xmlns="http://www.w3.org/2000/svg" p-id="1406" width="32" height="32" xmlns:xlink="http://www.w3.org/1999/xlink"><defs><style type="text/css"></style></defs><path d="M138.513 225.984c0 108.299 286.713 129.126 368.628 129.126 83.307 0 373.487-19.438 373.487-129.126 0-106.908-259.637-129.126-328.365-129.126h-16.66c-116.63 0-252 3.471-347.802 59.702-22.908 13.19-49.291 32.629-49.291 69.422z" p-id="1407"></path><path d="M135.733 396.762c0 105.521 227.7 149.95 333.227 149.95 122.183 0 254.777-2.082 358.217-70.116 61.088-40.96 73.586-95.11 21.519-143.701-11.106-10.412-7.638-8.33-18.051 0-54.843 47.207-162.446 63.869-223.537 73.586-43.041 6.943-149.26 6.249-192.297 0.693-27.769-3.471-63.173-9.027-88.861-15.274-41.65-9.723-95.11-26.381-131.21-53.456-17.354-13.883-13.883-17.354-30.546-1.39-15.274 13.883-28.464 31.934-28.464 59.702z" p-id="1408"></path><path d="M139.209 583.504c0 105.521 227.7 149.95 333.227 149.95 122.183 0 254.777-2.082 358.217-70.116 61.088-40.96 73.586-95.11 21.519-143.701-11.106-10.412-7.638-8.33-18.051 0-54.843 47.207-162.446 63.869-223.537 73.586-43.041 6.943-149.26 6.249-192.297 0.693-27.769-3.471-63.173-9.027-88.861-15.274-41.65-9.723-95.11-26.381-131.21-53.456-17.354-13.883-13.883-17.354-30.546-1.39-15.274 13.19-28.464 31.934-28.464 59.702z" p-id="1409"></path><path d="M135.733 773.023c0 105.521 227.7 149.95 333.227 149.95 122.183 0 254.777-2.082 358.217-70.116 61.088-40.96 73.586-95.11 21.519-143.701-11.106-10.412-7.638-8.33-18.051 0-54.843 47.207-162.446 63.869-223.537 73.586-43.041 6.943-149.26 6.249-192.297 0.693-27.769-3.471-63.173-9.027-88.861-15.274-41.65-9.723-95.11-26.381-131.21-53.456-17.354-13.883-13.883-17.354-30.546-1.39-15.274 13.19-28.464 31.934-28.464 59.702z" p-id="1410"></path></svg>